# xmcd CD database file generated by OrangeCD 5.2
#
# Track frame offsets:
#	150
#	12172
#	30700
#	41290
#	53452
#	67017
#	79810
#	94295
#	107795
#	121130
#
# Disc length: 1913 seconds
#
# Revision: 1
# Processed by: cddbd v1.5.1PL0 Copyright (c) Steve Scherf et al.
# Submitted via: OrangeCD 5.2
#
DISCID=7607770a
DTITLE=Various Artist - Winning Combinations
DYEAR=2002
DGENRE=Motown Compilation
TTITLE0=The Temptations - Get Ready
TTITLE1=The Temptations - Ball Of Confusion
TTITLE2=The Temptations - I Second That Emotion
TTITLE3=The Temptations - The Way You Do The Things You Do
TTITLE4=The Temptations - You've Really Got A Hold On Me
TTITLE5=Smokey Robinson and The Miracles - Shop Around
TTITLE6=Smokey Robinson and The Miracles - My Girl
TTITLE7=Smokey Robinson and The Miracles - The Love I Saw In You Was Just A Mirag
TTITLE7=e
TTITLE8=Smokey Robinson and The Miracles - The Tracks Of My Tears
TTITLE9=Smokey Robinson and The Miracles - Betcha By Golly Wow
EXTD=
EXTT0=
EXTT1=
EXTT2=
EXTT3=
EXTT4=
EXTT5=
EXTT6=
EXTT7=
EXTT8=
EXTT9=
PLAYORDER=
